# xmcd CD database file generated by Grip 2.94
# 
# Track frame offsets:
#       150
#       14935
#       32887
#       54972
#       70105
#       90122
#       104887
#       114797
#       143887
#       161117
#       176067
#       189117
# 
# Disc length: 2786 seconds
# 
# Revision: 3
# Processed by: cddbd v1.4b41PL1 Copyright (c) Steve Scherf et al.
# Submitted via: Grip 2.94
# 
DISCID=9e0ae00c
DTITLE=Roomful of Blues - Swingin' and Jumpin'
DYEAR=1900
DGENRE=
TTITLE0=Give It Up
TTITLE1=Jumpin' For Joe
TTITLE2=Honey Hush
TTITLE3=He Was A Friend Of Mine
TTITLE4=That's The Groovy Thing
TTITLE5=Red, Hot And Blue
TTITLE6=Take It Like A Man
TTITLE7=Street Lights
TTITLE8=That's My Life
TTITLE9=House Of Joy
TTITLE10=Cocka-Doodle-Doo
TTITLE11=Duke's Blues
EXTD=
EXTT0=
EXTT1=
EXTT2=
EXTT3=
EXTT4=
EXTT5=
EXTT6=
EXTT7=
EXTT8=
EXTT9=
EXTT10=
EXTT11=
PLAYORDER=
